<?xml version="1.0" standalone="no"?>
<!DOCTYPE svg PUBLIC "-//W3C//DTD SVG 20010904//EN"
 "http://www.w3.org/TR/2001/REC-SVG-20010904/DTD/svg10.dtd">
<svg version="1.0" xmlns="http://www.w3.org/2000/svg"
 width="192.000000pt" height="192.000000pt" viewBox="0 0 192.000000 192.000000"
 preserveAspectRatio="xMidYMid meet">
<metadata>
Created by potrace 1.14, written by Peter Selinger 2001-2017
</metadata>
<g transform="translate(0.000000,192.000000) scale(0.100000,-0.100000)"
fill="#000000" stroke="none">
<path d="M897 1698 c-147 -145 -257 -392 -257 -579 l0 -77 -64 -51 c-68 -54
-106 -114 -106 -167 0 -33 74 -361 83 -371 4 -3 50 32 104 78 142 122 130 114
151 96 32 -29 90 -47 151 -47 46 0 71 6 116 30 31 16 61 28 65 25 4 -3 56 -45
116 -95 59 -49 111 -90 114 -90 8 0 80 345 80 379 0 48 -41 111 -105 162 l-62
50 -5 103 c-10 189 -103 398 -239 538 -37 37 -71 68 -77 68 -6 0 -35 -24 -65
-52z m142 -335 c40 -30 63 -81 57 -128 -4 -30 -14 -49 -45 -77 -35 -33 -47
-38 -88 -38 -150 0 -195 183 -62 253 41 22 100 17 138 -10z"/>
<path d="M770 402 l0 -136 45 44 c24 24 46 42 49 39 2 -2 22 -41 45 -86 23
-46 43 -83 46 -83 3 0 23 36 45 79 22 44 44 82 49 86 6 3 28 -11 51 -31 l40
-36 0 130 0 131 -57 -26 c-80 -37 -176 -37 -256 0 l-57 26 0 -137z"/>
</g>
</svg>
