<svg version="1.2" xmlns="http://www.w3.org/2000/svg" viewBox="0 0 24 24" width="24" height="24"><defs><clipPath clipPathUnits="userSpaceOnUse" id="cp1"><path d="m0 0h24v24h-24z"/></clipPath></defs><style></style><g clip-path="url(#cp1)"><path fill-rule="evenodd" d="m22.8 10.6c0.4 0.1 0.7 0.3 1 0.7 0.2 0.3 0.3 0.7 0.2 1.1l-0.8 3.5h-0.5c-0.7 0.1-1.4 0.6-1.5 1.4-0.2 0.7 0.1 1.5 0.8 1.8l0.4 0.2-0.8 3.5c-0.1 0.7-0.8 1.2-1.5 1.2q-0.1 0-0.3 0l-16-3.7c-0.9-0.1-1.4-1-1.2-1.8l0.4-1.7q-0.1-0.1-0.2-0.3l-0.9-3.4 0.4-0.3c0.6-0.4 1-1.1 0.8-1.9-0.2-0.7-0.9-1.2-1.7-1.2h-0.4l-0.9-3.5c-0.2-0.3-0.1-0.8 0.1-1.1 0.2-0.4 0.5-0.6 0.9-0.7l15.9-4.3c0.8-0.3 1.7 0.2 1.9 1l0.9 3.5-0.4 0.2c-0.6 0.4-1 1.2-0.8 1.9 0.2 0.7 0.9 1.2 1.7 1.2h0.4l0.7 2.4 1.4 0.3zm-18.6 0c0.3 1.1-0.1 2.3-0.9 3l0.7 2.6c0 0.1 0.1 0.2 0.1 0.2 0.1 0 0.2 0 0.3 0l3.1-0.8-0.3-1c0-0.3 0.1-0.5 0.4-0.6 0.2-0.1 0.5 0.1 0.6 0.3l0.2 1 11.9-3.2c0.1-0.1 0.2-0.2 0.2-0.4l-0.7-2.6c-1.1-0.2-2-1-2.3-2.1-0.3-1.1 0.1-2.2 0.9-3l-0.7-2.6c0-0.1-0.2-0.2-0.4-0.2l-11.8 3.2 0.3 1.4c0.1 0.2 0 0.5-0.3 0.6q-0.1 0-0.1 0c-0.2 0-0.4-0.1-0.5-0.4l-0.4-1.3-3.1 0.8c-0.1 0.1-0.1 0.1-0.2 0.2 0 0 0 0.1 0 0.2l0.7 2.6c1.1 0.2 2 1 2.3 2.1zm18.6 1.6c0-0.1 0-0.2-0.1-0.3 0 0 0-0.1-0.2-0.1l-0.8-0.2c0.1 0.7-0.4 1.5-1.1 1.7l-3.5 0.9 0.2 0.6 1.2 1.8-1.9 1.2-1.3 1.8-1.7-1.5-2.1-0.7 0.7-1.9-3.3 0.9-0.2 0.8c0 0.2-0.2 0.4-0.4 0.4q-0.1 0-0.1 0c-0.3-0.1-0.5-0.3-0.4-0.6l0.1-0.3-3.2 0.9q-0.2 0-0.4 0-0.1 0-0.3 0l-0.2 1.2c-0.1 0.2 0 0.3 0.2 0.4l3.2 0.7 0.2-1c0-0.3 0.3-0.4 0.6-0.4 0.2 0.1 0.4 0.3 0.3 0.6l-0.2 1 12 2.7c0.1 0 0.3-0.1 0.4-0.3l0.5-2.6c-0.8-0.7-1.3-1.8-1-2.9 0.2-1.1 1.1-2 2.2-2.2l0.6-2.6zm-6.6 2.3l-2.9 0.7v0.3l-0.6 1.3 1.4 0.5 1 0.9 0.9-1.1 1.2-0.8-0.8-1.1z"/><path  d="m6.7 10.7c-0.3 0-0.4 0.3-0.4 0.5l0.4 1.5c0.1 0.2 0.3 0.4 0.5 0.4q0.1 0 0.1 0c0.3-0.1 0.4-0.4 0.4-0.6l-0.4-1.5c-0.1-0.3-0.4-0.4-0.6-0.3z"/><path  d="m5.8 9.4c0.1 0.2 0.3 0.3 0.5 0.3q0 0 0.1 0c0.3 0 0.4-0.3 0.3-0.6l-0.4-1.4c0-0.3-0.3-0.5-0.5-0.4-0.3 0.1-0.5 0.3-0.4 0.6z"/><path fill-rule="evenodd" d="m9.9 9.1l-1-2 2.1-0.9 1.6-1.5 1.5 1.6 1.9 1.1-1.1 1.9-0.4 2.2-2.2-0.5-2.2 0.3zm0.4-1.5l0.6 1.3 0.1 1.3 1.4-0.2 1.3 0.4 0.3-1.4 0.7-1.2-1.3-0.7-0.9-1-1 1z"/></g></svg>